<svg data-v-0dd9719b="" version="1.0" xmlns="http://www.w3.org/2000/svg" xmlns:xlink="http://www.w3.org/1999/xlink" width="100%" height="100%" viewBox="0 0 340.000000 250.000000" preserveAspectRatio="xMidYMid meet" color-interpolation-filters="sRGB" style="margin: auto;"> <rect data-v-0dd9719b="" x="0" y="0" width="100%" height="100%" fill="#ffbd00" fill-opacity="1" class="background"></rect> <!----> <g data-v-0dd9719b="" fill="#feffff" class="bordersvg b-d1" transform="translate(47.94499969482422,79.90399932861328)"><polyline stroke="#feffff" stroke-width="3" fill-opacity="0" fill="#ffbd00" points="122.05500030517578,20 122.05500030517578,10 244.11000061035156,0 244.11000061035156,90.19199752807617 122.05500030517578,80.19199752807617 122.05500030517578,70.19199752807617"></polyline> <g transform="translate(0,20)"><g><rect data-gra="graph-name-bg" stroke-width="2" class="i-icon-bg" x="0" y="0" width="244.11000061035156" height="50.19199752807617" fill-opacity="0"></rect> <!----> <!----> </g> <g transform="translate(10,3)"><g data-gra="path-name" fill-rule="" class="tp-name" transform="translate(0,0)"><g transform="scale(1)"><g><path d="M23.7-27.04L23.7-28.9Q23.7-29.5 23.3-29.9L23.3-29.9Q22.88-30.32 22.3-30.32L22.3-30.32 4.12-30.32Q3.54-30.32 3.12-29.9L3.12-29.9Q2.72-29.5 2.72-28.9L2.72-28.9 2.72-1.4Q2.72-0.82 3.12-0.42L3.12-0.42Q3.54 0 4.12 0L4.12 0 5.98 0Q6.58 0 6.98-0.42L6.98-0.42Q7.4-0.82 7.4-1.4L7.4-1.4 7.4-11.43Q7.4-12 7.8-12.4L7.8-12.4Q8.22-12.82 8.79-12.82L8.79-12.82 18.8-12.82Q19.4-12.82 19.8-13.22L19.8-13.22Q20.22-13.64 20.22-14.22L20.22-14.22 20.22-16.08Q20.22-16.68 19.8-17.08L19.8-17.08Q19.4-17.5 18.8-17.5L18.8-17.5 8.79-17.5Q8.22-17.5 7.8-17.9L7.8-17.9Q7.4-18.32 7.4-18.89L7.4-18.89 7.4-24.25Q7.4-24.83 7.8-25.23L7.8-25.23Q8.22-25.65 8.79-25.65L8.79-25.65 22.3-25.65Q22.88-25.65 23.3-26.05L23.3-26.05Q23.7-26.47 23.7-27.04L23.7-27.04ZM44.85-28.9L44.85-6.07Q44.85-5.49 44.43-5.07L44.43-5.07Q44.03-4.67 43.45-4.67L43.45-4.67 34.59-4.67Q34.02-4.67 33.6-5.07L33.6-5.07Q33.2-5.49 33.2-6.07L33.2-6.07 33.2-28.9Q33.2-29.5 32.78-29.9L32.78-29.9Q32.38-30.32 31.78-30.32L31.78-30.32 29.92-30.32Q29.35-30.32 28.92-29.9L28.92-29.9Q28.53-29.5 28.53-28.9L28.53-28.9 28.53-1.4Q28.53-0.82 28.92-0.42L28.92-0.42Q29.35 0 29.92 0L29.92 0 48.1 0Q48.68 0 49.1-0.42L49.1-0.42Q49.5-0.82 49.5-1.4L49.5-1.4 49.5-28.9Q49.5-29.5 49.1-29.9L49.1-29.9Q48.68-30.32 48.1-30.32L48.1-30.32 46.24-30.32Q45.67-30.32 45.25-29.9L45.25-29.9Q44.85-29.5 44.85-28.9L44.85-28.9ZM63.34-25.65L70.74-25.65Q71.31-25.65 71.74-25.23L71.74-25.23Q72.13-24.83 72.13-24.25L72.13-24.25 72.13-18.89Q72.13-18.32 71.74-17.9L71.74-17.9Q71.31-17.5 70.74-17.5L70.74-17.5 63.34-17.5Q62.77-17.5 62.34-17.9L62.34-17.9Q61.95-18.32 61.95-18.89L61.95-18.89 61.95-24.25Q61.95-24.83 62.34-25.23L62.34-25.23Q62.77-25.65 63.34-25.65L63.34-25.65ZM76.56-0.71L78.18-1.62Q78.67-1.93 78.82-2.48L78.82-2.48Q78.98-3.03 78.69-3.54L78.69-3.54 73.64-12.29Q73.55-12.47 73.64-12.65L73.64-12.65Q73.75-12.82 73.95-12.82L73.95-12.82 75.41-12.82Q75.99-12.82 76.39-13.22L76.39-13.22Q76.81-13.64 76.81-14.22L76.81-14.22 76.81-28.9Q76.81-29.5 76.39-29.9L76.39-29.9Q75.99-30.32 75.41-30.32L75.41-30.32 58.67-30.32Q58.09-30.32 57.69-29.9L57.69-29.9Q57.27-29.5 57.27-28.9L57.27-28.9 57.27-1.4Q57.27-0.82 57.69-0.42L57.69-0.42Q58.09 0 58.67 0L58.67 0 60.53 0Q61.13 0 61.53-0.42L61.53-0.42Q61.95-0.82 61.95-1.4L61.95-1.4 61.95-11.43Q61.95-12 62.34-12.4L62.34-12.4Q62.77-12.82 63.34-12.82L63.34-12.82 67.77-12.82Q67.97-12.82 68.06-12.65L68.06-12.65 74.64-1.22Q74.95-0.71 75.5-0.55L75.5-0.55Q76.05-0.4 76.56-0.71L76.56-0.71ZM101.19-28.9L101.19-10.05Q101.19-9.77 100.93-9.7L100.93-9.7Q100.66-9.63 100.53-9.88L100.53-9.88 89.92-29.57Q89.54-30.32 88.7-30.32L88.7-30.32 86.26-30.32Q85.69-30.32 85.27-29.9L85.27-29.9Q84.87-29.5 84.87-28.9L84.87-28.9 84.87-1.4Q84.87-0.82 85.27-0.42L85.27-0.42Q85.69 0 86.26 0L86.26 0 88.12 0Q88.72 0 89.12-0.42L89.12-0.42Q89.54-0.82 89.54-1.4L89.54-1.4 89.54-20.26Q89.54-20.53 89.79-20.6L89.79-20.6Q90.05-20.66 90.18-20.42L90.18-20.42 100.79-0.73Q101.19 0 102.03 0L102.03 0 104.45 0Q105.02 0 105.44-0.42L105.44-0.42Q105.84-0.82 105.84-1.4L105.84-1.4 105.84-28.9Q105.84-29.5 105.44-29.9L105.44-29.9Q105.02-30.32 104.45-30.32L104.45-30.32 102.59-30.32Q102.01-30.32 101.59-29.9L101.59-29.9Q101.19-29.5 101.19-28.9L101.19-28.9ZM120.53-26.22L120.53-29.72Q120.53-30.32 119.93-30.32L119.93-30.32 114.1-30.32Q113.53-30.32 113.53-29.72L113.53-29.72 113.53-26.22Q113.53-25.65 114.1-25.65L114.1-25.65Q114.7-25.65 114.7-25.07L114.7-25.07 114.7-5.25Q114.7-4.67 114.1-4.67L114.1-4.67Q113.53-4.67 113.53-4.08L113.53-4.08 113.53-0.58Q113.53 0 114.1 0L114.1 0 119.93 0Q120.53 0 120.53-0.58L120.53-0.58 120.53-4.08Q120.53-4.67 119.93-4.67L119.93-4.67Q119.35-4.67 119.35-5.25L119.35-5.25 119.35-25.07Q119.35-25.65 119.93-25.65L119.93-25.65Q120.53-25.65 120.53-26.22L120.53-26.22ZM146.02-27.04L146.02-28.9Q146.02-29.5 145.62-29.9L145.62-29.9Q145.2-30.32 144.62-30.32L144.62-30.32 126.44-30.32Q125.86-30.32 125.44-29.9L125.44-29.9Q125.04-29.5 125.04-28.9L125.04-28.9 125.04-27.04Q125.04-26.47 125.44-26.05L125.44-26.05Q125.86-25.65 126.44-25.65L126.44-25.65 131.8-25.65Q132.37-25.65 132.8-25.23L132.8-25.23Q133.19-24.83 133.19-24.25L133.19-24.25 133.19-1.4Q133.19-0.82 133.61-0.42L133.61-0.42Q134.01 0 134.61 0L134.61 0 136.47 0Q137.05 0 137.45-0.42L137.45-0.42Q137.87-0.82 137.87-1.4L137.87-1.4 137.87-24.25Q137.87-24.83 138.27-25.23L138.27-25.23Q138.69-25.65 139.26-25.65L139.26-25.65 144.62-25.65Q145.2-25.65 145.62-26.05L145.62-26.05Q146.02-26.47 146.02-27.04L146.02-27.04ZM166.39-28.9L166.39-6.07Q166.39-5.49 165.97-5.07L165.97-5.07Q165.57-4.67 165-4.67L165-4.67 156.14-4.67Q155.56-4.67 155.14-5.07L155.14-5.07Q154.74-5.49 154.74-6.07L154.74-6.07 154.74-28.9Q154.74-29.5 154.32-29.9L154.32-29.9Q153.92-30.32 153.33-30.32L153.33-30.32 151.47-30.32Q150.89-30.32 150.47-29.9L150.47-29.9Q150.07-29.5 150.07-28.9L150.07-28.9 150.07-1.4Q150.07-0.82 150.47-0.42L150.47-0.42Q150.89 0 151.47 0L151.47 0 169.65 0Q170.22 0 170.65-0.42L170.65-0.42Q171.04-0.82 171.04-1.4L171.04-1.4 171.04-28.9Q171.04-29.5 170.65-29.9L170.65-29.9Q170.22-30.32 169.65-30.32L169.65-30.32 167.79-30.32Q167.21-30.32 166.79-29.9L166.79-29.9Q166.39-29.5 166.39-28.9L166.39-28.9ZM184.89-25.65L192.28-25.65Q192.86-25.65 193.28-25.23L193.28-25.23Q193.68-24.83 193.68-24.25L193.68-24.25 193.68-18.89Q193.68-18.32 193.28-17.9L193.28-17.9Q192.86-17.5 192.28-17.5L192.28-17.5 184.89-17.5Q184.31-17.5 183.89-17.9L183.89-17.9Q183.49-18.32 183.49-18.89L183.49-18.89 183.49-24.25Q183.49-24.83 183.89-25.23L183.89-25.23Q184.31-25.65 184.89-25.65L184.89-25.65ZM198.11-0.71L199.72-1.62Q200.21-1.93 200.37-2.48L200.37-2.48Q200.52-3.03 200.23-3.54L200.23-3.54 195.18-12.29Q195.1-12.47 195.18-12.65L195.18-12.65Q195.3-12.82 195.49-12.82L195.49-12.82 196.96-12.82Q197.53-12.82 197.93-13.22L197.93-13.22Q198.35-13.64 198.35-14.22L198.35-14.22 198.35-28.9Q198.35-29.5 197.93-29.9L197.93-29.9Q197.53-30.32 196.96-30.32L196.96-30.32 180.21-30.32Q179.64-30.32 179.24-29.9L179.24-29.9Q178.82-29.5 178.82-28.9L178.82-28.9 178.82-1.4Q178.82-0.82 179.24-0.42L179.24-0.42Q179.64 0 180.21 0L180.21 0 182.07 0Q182.67 0 183.07-0.42L183.07-0.42Q183.49-0.82 183.49-1.4L183.49-1.4 183.49-11.43Q183.49-12 183.89-12.4L183.89-12.4Q184.31-12.82 184.89-12.82L184.89-12.82 189.32-12.82Q189.51-12.82 189.6-12.65L189.6-12.65 196.18-1.22Q196.49-0.71 197.04-0.55L197.04-0.55Q197.6-0.4 198.11-0.71L198.11-0.71ZM225.44-4.67L207.25-4.67Q206.68-4.67 206.28-4.25L206.28-4.25Q205.86-3.85 205.86-3.26L205.86-3.26 205.86-1.4Q205.86-0.82 206.28-0.42L206.28-0.42Q206.68 0 207.25 0L207.25 0 225.44 0Q226.01 0 226.43-0.42L226.43-0.42Q226.83-0.82 226.83-1.4L226.83-1.4 226.83-3.26Q226.83-3.85 226.43-4.25L226.43-4.25Q226.01-4.67 225.44-4.67L225.44-4.67ZM225.44-17.5L207.25-17.5Q206.68-17.5 206.28-17.08L206.28-17.08Q205.86-16.68 205.86-16.08L205.86-16.08 205.86-14.22Q205.86-13.64 206.28-13.22L206.28-13.22Q206.68-12.82 207.25-12.82L207.25-12.82 225.44-12.82Q226.01-12.82 226.43-13.22L226.43-13.22Q226.83-13.64 226.83-14.22L226.83-14.22 226.83-16.08Q226.83-16.68 226.43-17.08L226.43-17.08Q226.01-17.5 225.44-17.5L225.44-17.5ZM225.44-30.32L207.25-30.32Q206.68-30.32 206.28-29.9L206.28-29.9Q205.86-29.5 205.86-28.9L205.86-28.9 205.86-27.04Q205.86-26.47 206.28-26.05L206.28-26.05Q206.68-25.65 207.25-25.65L207.25-25.65 225.44-25.65Q226.01-25.65 226.43-26.05L226.43-26.05Q226.83-26.47 226.83-27.04L226.83-27.04 226.83-28.9Q226.83-29.5 226.43-29.9L226.43-29.9Q226.01-30.32 225.44-30.32L225.44-30.32Z" transform="translate(-2.7200000286102295, 30.31999969482422)"></path></g> <!----> <!----> <!----> <!----> <!----> <!----> <!----></g></g> <g data-gra="path-slogan" fill-rule="" class="tp-slogan" transform="translate(88.75000190734863,36.31999969482422)"><!----> <!----> <g transform="scale(1, 1)"><g transform="scale(1)"><path d="M1.08-7.87L1.08 0L2.08 0L2.08-3.12L3.49-3.12C3.92-3.12 4.32-3.17 4.67-3.27C5.03-3.37 5.34-3.52 5.59-3.72C5.85-3.92 6.05-4.17 6.19-4.48C6.33-4.78 6.40-5.14 6.40-5.56C6.40-5.99 6.33-6.35 6.19-6.65C6.05-6.94 5.85-7.18 5.60-7.36C5.35-7.54 5.04-7.67 4.68-7.75C4.32-7.83 3.92-7.87 3.49-7.87ZM3.37-3.94L2.08-3.94L2.08-7.07L3.37-7.07C4.05-7.07 4.56-6.96 4.90-6.74C5.23-6.52 5.40-6.12 5.40-5.56C5.40-5.00 5.23-4.59 4.90-4.33C4.57-4.07 4.06-3.94 3.37-3.94ZM7.99-7.87L7.99 0L12.43 0L12.43-0.85L8.99-0.85L8.99-7.87ZM17.21-3.20L14.84-3.20L15.22-4.40C15.36-4.84 15.50-5.28 15.62-5.72C15.75-6.15 15.88-6.60 16.00-7.06L16.04-7.06C16.17-6.60 16.30-6.15 16.43-5.72C16.56-5.28 16.69-4.84 16.84-4.40ZM17.46-2.40L18.20 0L19.27 0L16.61-7.87L15.48-7.87L12.82 0L13.84 0L14.59-2.40ZM20.39-7.87L20.39 0L21.34 0L21.34-4.12C21.34-4.53 21.32-4.95 21.29-5.36C21.27-5.77 21.24-6.18 21.20-6.58L21.25-6.58L22.10-4.96L24.96 0L25.99 0L25.99-7.87L25.04-7.87L25.04-3.80C25.04-3.39 25.06-2.97 25.09-2.54C25.11-2.11 25.14-1.70 25.16-1.30L25.12-1.30L24.26-2.93L21.42-7.87ZM28.15-7.87L28.15 0L29.10 0L29.10-4.12C29.10-4.53 29.09-4.95 29.06-5.36C29.03-5.77 29.00-6.18 28.97-6.58L29.02-6.58L29.87-4.96L32.72 0L33.76 0L33.76-7.87L32.81-7.87L32.81-3.80C32.81-3.39 32.82-2.97 32.85-2.54C32.88-2.11 32.90-1.70 32.93-1.30L32.88-1.30L32.03-2.93L29.18-7.87ZM35.92-7.87L35.92 0L40.57 0L40.57-0.85L36.91-0.85L36.91-3.71L39.90-3.71L39.90-4.56L36.91-4.56L36.91-7.03L40.45-7.03L40.45-7.87ZM43.24-4.14L43.24-7.07L44.56-7.07C45.17-7.07 45.64-6.96 45.97-6.76C46.30-6.55 46.46-6.18 46.46-5.66C46.46-5.15 46.30-4.77 45.97-4.52C45.64-4.27 45.17-4.14 44.56-4.14ZM46.56 0L47.69 0L45.70-3.43C46.23-3.57 46.66-3.82 46.98-4.19C47.30-4.56 47.46-5.05 47.46-5.66C47.46-6.07 47.39-6.42 47.26-6.70C47.12-6.98 46.93-7.20 46.69-7.38C46.44-7.56 46.15-7.68 45.81-7.76C45.47-7.83 45.10-7.87 44.70-7.87L42.24-7.87L42.24 0L43.24 0L43.24-3.32L44.66-3.32Z" transform="translate(-1.08, 7.872)"></path></g></g></g></g></g></g><defs v-gra="od"></defs></svg>